<svg width="80" height="41" viewBox="0 0 80 41" fill="none" xmlns="http://www.w3.org/2000/svg">
<path d="M42.3755 24.8517V25.5517L41.3955 25.5717V38.2517H40.7555L38.1955 36.5717C37.7022 37.1717 37.1088 37.6517 36.4155 38.0117C35.7222 38.3717 34.9955 38.5517 34.2355 38.5517C32.8488 38.5517 31.7755 38.1117 31.0155 37.2317C30.2555 36.3517 29.8755 34.985 29.8755 33.1317V25.5717L28.8955 25.5517V24.8517H34.2355V25.5517L33.2555 25.5717V32.6317C33.2555 33.8583 33.5088 34.7783 34.0155 35.3917C34.5222 35.9917 35.2155 36.2917 36.0955 36.2917C36.8422 36.2917 37.5022 36.1383 38.0755 35.8317V25.5717L37.0955 25.5517V24.8517H42.3755ZM48.7672 36.2517C49.5939 36.2517 50.4005 35.9517 51.1872 35.3517L51.5072 35.7117C51.0139 36.565 50.3939 37.2517 49.6472 37.7717C48.9139 38.2917 48.1205 38.5517 47.2672 38.5517C46.0672 38.5517 45.1072 38.1517 44.3872 37.3517C43.6805 36.5383 43.3272 35.445 43.3272 34.0717C43.3272 33.2583 43.4939 32.4517 43.8272 31.6517C44.1605 30.8517 44.5872 30.185 45.1072 29.6517C45.5605 29.425 46.0339 29.2517 46.5272 29.1317C47.0205 29.0117 47.4939 28.9517 47.9472 28.9517C48.7339 28.9517 49.4339 29.165 50.0472 29.5917C50.6605 30.0183 51.1539 30.6383 51.5272 31.4517L49.2272 32.7917C49.0139 32.1917 48.7272 31.585 48.3672 30.9717C48.0072 30.3583 47.6939 29.9383 47.4272 29.7117C47.0805 30.045 46.7805 30.5317 46.5272 31.1717C46.2872 31.7983 46.1672 32.445 46.1672 33.1117C46.1672 34.1383 46.3939 34.9183 46.8472 35.4517C47.3005 35.985 47.9405 36.2517 48.7672 36.2517ZM59.9238 37.2117L56.9838 38.5917C56.6238 38.3383 56.3771 37.9917 56.2438 37.5517C55.7638 37.845 55.2771 38.085 54.7838 38.2717C54.3038 38.4583 53.8838 38.5517 53.5238 38.5517C52.9771 38.5517 52.5304 38.3583 52.1838 37.9717C51.8371 37.585 51.6638 37.0917 51.6638 36.4917C51.6638 36.225 51.6904 35.9383 51.7438 35.6317C51.8104 35.3117 51.8904 35.0583 51.9838 34.8717L56.2238 34.1917L56.2638 33.6117C56.2904 33.0117 56.1638 32.545 55.8838 32.2117C55.6038 31.865 55.1504 31.6917 54.5238 31.6917C54.2438 31.6917 53.9504 31.725 53.6438 31.7917C53.3371 31.845 53.0771 31.9183 52.8638 32.0117L52.5438 32.6917L52.0038 32.4917L52.9238 29.6117C53.9504 29.1717 54.9238 28.9517 55.8438 28.9517C56.7904 28.9517 57.5638 29.205 58.1638 29.7117C58.7638 30.205 59.0638 30.985 59.0638 32.0517L59.0438 32.4517L58.8438 35.1517L58.8038 35.8717C58.8038 36.1117 58.8238 36.305 58.8638 36.4517C58.9038 36.585 58.9704 36.725 59.0638 36.8717L59.6838 36.6317L59.9238 37.2117ZM55.3838 37.1117C55.5971 37.1117 55.8438 37.0317 56.1238 36.8717L56.1038 36.4517L56.1238 36.0117L56.1838 34.8717L54.6438 35.2317C54.5904 35.405 54.5638 35.6383 54.5638 35.9317C54.5638 36.3317 54.6438 36.6317 54.8038 36.8317C54.9638 37.0183 55.1571 37.1117 55.3838 37.1117ZM63.3185 30.7517C63.3185 31.1117 63.4585 31.4383 63.7385 31.7317C64.0318 32.025 64.4718 32.3717 65.0585 32.7717C65.7785 33.265 66.3251 33.7117 66.6985 34.1117C67.0718 34.5117 67.2585 35.005 67.2585 35.5917C67.2585 36.1117 67.1051 36.5983 66.7985 37.0517C66.4918 37.505 66.0585 37.8717 65.4985 38.1517C64.9385 38.4183 64.2985 38.5517 63.5785 38.5517C62.8851 38.5517 62.2251 38.385 61.5985 38.0517C60.9851 37.7183 60.5318 37.2917 60.2385 36.7717L61.9585 35.3917C62.4918 36.3917 63.0385 37.2117 63.5985 37.8517C63.8251 37.6783 64.0118 37.4783 64.1585 37.2517C64.3185 37.0117 64.3985 36.7783 64.3985 36.5517C64.3985 36.1783 64.2585 35.8583 63.9785 35.5917C63.7118 35.3117 63.2918 34.9783 62.7185 34.5917C62.2518 34.285 61.8785 34.0183 61.5985 33.7917C61.3185 33.565 61.0785 33.2917 60.8785 32.9717C60.6918 32.6517 60.5985 32.2917 60.5985 31.8917C60.5985 31.3983 60.7585 30.925 61.0785 30.4717C61.4118 30.0183 61.8718 29.6517 62.4585 29.3717C63.0451 29.0917 63.7118 28.9517 64.4585 28.9517C65.0318 28.9517 65.5718 29.0783 66.0785 29.3317C66.5985 29.5717 67.0185 29.8783 67.3385 30.2517L65.7785 31.7917C65.1385 30.9783 64.4318 30.2517 63.6585 29.6117C63.4318 29.905 63.3185 30.285 63.3185 30.7517ZM62.6585 38.2517H62.6785H62.6585ZM77.6938 37.6717V38.2517H73.4138V37.6717L74.1538 37.6117V33.3917C74.1538 32.805 73.9871 32.3517 73.6538 32.0317C73.3338 31.7117 72.8871 31.545 72.3138 31.5317L71.6538 32.1917L71.6138 37.6117L72.3538 37.6717V38.2517H68.0538V37.6717L68.7938 37.6117L68.6938 25.6317L67.9338 25.7917L67.7338 25.2117L71.4338 24.0917L71.7138 24.5717L71.6538 31.2317L73.2738 28.9117C74.5404 28.9117 75.4738 29.2117 76.0738 29.8117C76.6738 30.4117 76.9738 31.3383 76.9738 32.5917V37.6117L77.6938 37.6717Z" fill="#0E49B5"/>
<path d="M36.2621 22.1663C36.4612 16.0915 34.1044 10.0084 32.901 7.72621C7.40683 2.24894 8.83424 24.5315 12.7347 36.3574C18.9091 21.8177 30.9923 20.8384 36.2621 22.1663Z" fill="url(#paint0_linear_30_119)" stroke="black" stroke-width="2"/>
<path d="M28.5441 14.1994C26.3532 10.1163 21.4901 4.36518 19.3324 2C4.79273 9.07065 8.87578 27.851 12.7348 36.3574C13.7306 21.519 23.6893 15.4027 28.5441 14.1994Z" fill="url(#paint1_linear_30_119)" stroke="black" stroke-width="2"/>
<path d="M21.3242 12.4566C18.7349 9.07064 12.9423 4.32368 10.3696 2.37344C-0.0869752 9.84244 0.286475 23.4111 1.78027 29.2618L12.7348 36.3574C8.95051 23.8095 16.8842 15.1952 21.3242 12.4566Z" fill="url(#paint2_linear_30_119)" stroke="black" stroke-width="2"/>
<defs>
<linearGradient id="paint0_linear_30_119" x1="13.0748" y1="10.2159" x2="27.3904" y2="31.378" gradientUnits="userSpaceOnUse">
<stop offset="0.5" stop-color="#54E346"/>
<stop offset="1" stop-color="#122010" stop-opacity="0.67"/>
</linearGradient>
<linearGradient id="paint1_linear_30_119" x1="9.96276" y1="14.1994" x2="22.7845" y2="24.2825" gradientUnits="userSpaceOnUse">
<stop offset="0.25" stop-color="#54E346"/>
<stop offset="1" stop-opacity="0"/>
</linearGradient>
<linearGradient id="paint2_linear_30_119" x1="2.12035" y1="14.1994" x2="13.3238" y2="38.2246" gradientUnits="userSpaceOnUse">
<stop offset="0.270833" stop-color="#54E346"/>
<stop offset="1" stop-color="#0C150B"/>
</linearGradient>
</defs>
</svg>
