<svg width="66" height="62" viewBox="0 0 66 62" fill="none" xmlns="http://www.w3.org/2000/svg">
<path d="M62.5263 51.6667V55.1111C62.5263 58.9 59.4 62 55.5789 62H6.94737C3.09158 62 0 58.9 0 55.1111V6.88889C0 3.1 3.09158 0 6.94737 0H55.5789C59.4 0 62.5263 3.1 62.5263 6.88889V10.3333H31.2632C27.4074 10.3333 24.3158 13.4333 24.3158 17.2222V44.7778C24.3158 48.5667 27.4074 51.6667 31.2632 51.6667H62.5263ZM31.2632 44.7778H66V17.2222H31.2632V44.7778ZM45.1579 36.1667C42.2747 36.1667 39.9474 33.8589 39.9474 31C39.9474 28.1411 42.2747 25.8333 45.1579 25.8333C48.0411 25.8333 50.3684 28.1411 50.3684 31C50.3684 33.8589 48.0411 36.1667 45.1579 36.1667Z" fill="white"/>
</svg>
