<svg width="267" height="111" viewBox="0 0 267 111" fill="none" xmlns="http://www.w3.org/2000/svg">
<path d="M38.8574 42.8884C25.4954 42.8884 8.72211 58.9389 2.9278 64.9287C1.56466 66.3378 0.847168 68.2304 0.847168 70.191V103C0.847168 107.418 4.4289 111 8.84718 111H258.306C262.724 111 266.306 107.418 266.306 103V45.8312C266.306 43.9315 265.648 42.1148 264.391 40.6904C256.573 31.8306 226.82 -0.711112 212.969 0.901782C201.213 2.27065 182.952 24.2244 174.055 35.8261C171.183 39.5722 165.682 40.277 161.782 37.6175C152.32 31.1658 135.072 21.6174 121.008 26.0937C107.055 30.5351 89.1157 50.0772 79.0637 62.1289C75.3419 66.5911 68.0077 66.1303 64.5282 61.4766C58.3196 53.1728 48.6528 42.8884 38.8574 42.8884Z" fill="#EFF6FC" fill-opacity="0.45"/>
</svg>
